<svg xmlns="http://www.w3.org/2000/svg" viewBox="0 0 1024 1024" width="1024" height="1024">
  <defs>
    <linearGradient id="bg" x1="0" y1="0" x2="0" y2="1">
      <stop offset="0%" stop-color="#3b82f6"/>
      <stop offset="100%" stop-color="#1e40af"/>
    </linearGradient>
    <linearGradient id="hl" x1="0" y1="0" x2="0" y2="1">
      <stop offset="0%" stop-color="#ffffff" stop-opacity="0.18"/>
      <stop offset="55%" stop-color="#ffffff" stop-opacity="0"/>
    </linearGradient>
  </defs>

  <rect width="1024" height="1024" rx="224" ry="224" fill="url(#bg)"/>
  <rect width="1024" height="1024" rx="224" ry="224" fill="url(#hl)"/>

  <g fill="#ffffff">
    <rect x="208" y="282" width="608" height="132" rx="28" ry="28"/>
    <rect x="446" y="282" width="132" height="528" rx="28" ry="28"/>
  </g>

  <g fill="#ffffff" fill-opacity="0.92">
    <rect x="346" y="852" width="44" height="64" rx="12" ry="12"/>
    <rect x="406" y="852" width="44" height="64" rx="12" ry="12"/>
    <rect x="466" y="852" width="44" height="64" rx="12" ry="12"/>
    <rect x="526" y="852" width="44" height="64" rx="12" ry="12"/>
    <rect x="572" y="852" width="106" height="64" rx="12" ry="12" transform="rotate(-22 625 884)"/>
  </g>
</svg>
